<svg width="200" height="200" viewBox="0 0 200 200" fill="none" xmlns="http://www.w3.org/2000/svg">
<path d="M14.2798 53.1951C12.7746 49.683 8.7072 48.056 5.19508 49.5612C1.68296 51.0664 0.0559611 55.1338 1.56119 58.6459L14.2798 53.1951ZM72.8774 118.075C74.9614 114.873 74.0544 110.587 70.8516 108.504C67.6488 106.42 63.3631 107.326 61.2791 110.529L72.8774 118.075ZM48.246 130.559C46.162 133.761 47.069 138.047 50.2718 140.131C53.4746 142.215 57.7604 141.308 59.8444 138.105L48.246 130.559ZM198.779 58.6459C200.284 55.1338 198.657 51.0664 195.144 49.5612C191.632 48.056 187.565 49.683 186.06 53.1951L198.779 58.6459ZM173.69 112.739C176.392 115.441 180.772 115.441 183.474 112.739C186.176 110.037 186.176 105.656 183.474 102.954L173.69 112.739ZM93.2512 143.557C93.2512 147.378 96.3489 150.476 100.17 150.476C103.991 150.476 107.089 147.378 107.089 143.557H93.2512ZM140.496 138.105C142.58 141.308 146.866 142.215 150.068 140.131C153.27 138.047 154.177 133.761 152.093 130.559L140.496 138.105ZM40.4876 98.9013C43.1895 96.1993 43.1895 91.8184 40.4876 89.1164C37.7857 86.4145 33.4049 86.4145 30.7031 89.1164L40.4876 98.9013ZM16.8656 102.954C14.1638 105.656 14.1638 110.037 16.8656 112.739C19.5675 115.441 23.9483 115.441 26.6502 112.739L16.8656 102.954ZM100.17 113.576C70.4297 113.576 49.076 98.7666 34.8998 83.4999C27.8136 75.8688 22.6181 68.2159 19.1988 62.4715C17.4931 59.6059 16.2402 57.2334 15.4241 55.601C15.0162 54.7855 14.7183 54.1562 14.528 53.7444C14.433 53.5386 14.3649 53.3873 14.3236 53.2944C14.303 53.248 14.2871 53.2118 14.2798 53.1951C14.2796 53.1947 14.2801 53.1958 14.2798 53.1951C14.2807 53.1972 14.2798 53.1951 7.9205 55.9205C1.56119 58.6459 1.55981 58.6428 1.56119 58.6459C1.56175 58.6473 1.56581 58.6566 1.56701 58.6594C1.56931 58.6648 1.57217 58.6714 1.5754 58.6788C1.58177 58.6937 1.58998 58.7125 1.59985 58.7352C1.61968 58.7805 1.64643 58.8413 1.6801 58.917C1.74745 59.0685 1.84265 59.2798 1.96608 59.5469C2.21275 60.0811 2.57243 60.8392 3.04752 61.7893C3.99704 63.6885 5.41076 66.3608 7.30852 69.5491C11.0962 75.9124 16.8553 84.4034 24.7597 92.9153C40.5645 109.936 65.3355 127.414 100.17 127.414V113.576ZM130.727 107.864C121.776 111.388 111.624 113.576 100.17 113.576V127.414C113.437 127.414 125.304 124.87 135.796 120.74L130.727 107.864ZM61.2791 110.529L48.246 130.559L59.8444 138.105L72.8774 118.075L61.2791 110.529ZM192.419 55.9205C186.06 53.1951 186.059 53.1964 186.06 53.1951C186.061 53.1936 186.064 53.1852 186.064 53.1862C186.063 53.1881 186.061 53.1947 186.055 53.2062C186.045 53.2289 186.026 53.2706 186 53.3305C185.946 53.4503 185.859 53.6428 185.739 53.9025C185.496 54.4221 185.119 55.2097 184.602 56.2219C183.569 58.2477 181.986 61.1631 179.831 64.6215C175.509 71.5582 168.954 80.5693 160.009 88.9642L169.48 99.0535C179.526 89.6238 186.808 79.5905 191.575 71.9392C193.965 68.1037 195.74 64.8392 196.929 62.5085C197.523 61.3425 197.973 60.4078 198.28 59.7495C198.433 59.4203 198.551 59.1601 198.634 58.9743C198.676 58.8814 198.709 58.8072 198.733 58.7522C198.745 58.7247 198.754 58.7021 198.762 58.6843C198.766 58.6754 198.769 58.6678 198.772 58.6614C198.773 58.6582 198.778 58.6485 198.779 58.6459C198.779 58.6466 198.78 58.6446 198.779 58.6459C198.78 58.6443 198.779 58.6459 192.419 55.9205ZM160.009 88.9642C152.085 96.4014 142.364 103.284 130.727 107.864L135.796 120.74C149.39 115.39 160.562 107.423 169.48 99.0535L160.009 88.9642ZM159.852 98.9013L173.69 112.739L183.474 102.954L169.636 89.1164L159.852 98.9013ZM93.2512 120.495V143.557H107.089V120.495H93.2512ZM127.463 118.075L140.496 138.105L152.093 130.559L139.06 110.529L127.463 118.075ZM30.7031 89.1164L16.8656 102.954L26.6502 112.739L40.4876 98.9013L30.7031 89.1164Z" fill="#1C274C"/>
</svg>
