<svg width="709" height="339" viewBox="0 0 709 339" fill="none" xmlns="http://www.w3.org/2000/svg">
<path d="M0.0683816 169.209C0.0683439 262.679 75.6957 338.307 169.111 338.251H276.171L276.171 281.904L169.111 281.904C109.67 281.904 56.3607 234.892 56.416 169.209C56.416 103.47 109.67 56.5137 169.111 56.5136L276.171 56.5136L276.172 0.055553L169.111 0.0555314C75.7509 0.166055 0.123662 75.7933 0.0683816 169.209ZM539.403 56.4584C598.844 56.4584 652.153 103.47 652.098 169.154C652.098 234.892 598.844 281.849 539.403 281.849L276.171 281.904L276.171 338.362L539.403 338.307C632.874 338.307 708.501 262.679 708.446 169.264C708.391 75.8486 632.818 0.166022 539.403 0.221303L276.171 0.166038V56.5136L539.403 56.4584Z" fill="black"/>
</svg>
