<svg width="618" height="665" viewBox="0 0 618 665" fill="none" xmlns="http://www.w3.org/2000/svg">
<path d="M42.3333 106.667H242.333M242.333 106.667C242.333 143.486 272.18 173.333 309 173.333C345.82 173.333 375.667 143.486 375.667 106.667M242.333 106.667C242.333 69.8477 272.18 40 309 40C345.82 40 375.667 69.8477 375.667 106.667M375.667 106.667H575.667M42.3333 340H442.333M442.333 340C442.333 376.82 472.18 406.667 509 406.667C545.82 406.667 575.667 376.82 575.667 340C575.667 303.18 545.82 273.333 509 273.333C472.18 273.333 442.333 303.18 442.333 340ZM175.667 573.333H575.667M175.667 573.333C175.667 536.513 145.819 506.667 109 506.667C72.1809 506.667 42.3333 536.513 42.3333 573.333C42.3333 610.153 72.1809 640 109 640C145.819 640 175.667 610.153 175.667 573.333Z" stroke="black" stroke-opacity="0.1" stroke-width="50" stroke-linecap="round"/>
<path d="M24.4456 624.376L558.446 24.3765" stroke="#7D7D7D" stroke-width="47" stroke-linecap="round"/>
<path d="M59.5544 24.3766L593.554 624.377" stroke="#7D7D7D" stroke-width="47" stroke-linecap="round"/>
</svg>
