<!DOCTYPE svg PUBLIC "-//W3C//DTD SVG 1.1//EN" "http://www.w3.org/Graphics/SVG/1.1/DTD/svg11.dtd">
<svg width="800px" height="800px" viewBox="0 0 1024.00 1024.00" class="icon" version="1.1" xmlns="http://www.w3.org/2000/svg" fill="#000000" stroke="#000000" stroke-width="0.01024" transform="matrix(1, 0, 0, 1, 0, 0)rotate(0)">

<g id="folder">

<path d="M853.333333 256H469.333333l-85.333333-85.333333H170.666667c-46.933333 0-85.333333 38.4-85.333334 85.333333v170.666667h853.333334v-85.333334c0-46.933333-38.4-85.333333-85.333334-85.333333z" fill="#e02233"/>

<path d="M853.333333 256H170.666667c-46.933333 0-85.333333 38.4-85.333334 85.333333v426.666667c0 46.933333 38.4 85.333333 85.333334 85.333333h682.666666c46.933333 0 85.333333-38.4 85.333334-85.333333V341.333333c0-46.933333-38.4-85.333333-85.333334-85.333333z" fill="#e0b0b0"/>

</g>

</svg>