<svg width="167" height="22" viewBox="0 0 167 22" fill="none" xmlns="http://www.w3.org/2000/svg">
<g clip-path="url(#clip0)">
<path d="M39.78 16.25L38 12.25H32.32L30.55 16.25H29.62L34.9 4.33002H35.44L40.73 16.25H39.78ZM36.37 8.51002C36.18 8.05002 35.98 7.59002 35.78 7.13002C35.58 6.67002 35.37 6.19002 35.17 5.70002C34.97 6.18002 34.77 6.70002 34.57 7.10002L34 8.45002L32.69 11.45H37.69L36.37 8.51002Z" fill="white"/>
<path d="M52.89 16.25L47.79 11.25H43.79V16.25H43V4.33001H47.08C48.6273 4.21902 50.1756 4.53008 51.56 5.23001C51.9983 5.48035 52.3603 5.84532 52.6069 6.28575C52.8535 6.72618 52.9756 7.22546 52.96 7.73001C52.9522 8.17478 52.8355 8.61085 52.62 9.00001C52.4031 9.40468 52.1113 9.76441 51.76 10.06C51.3741 10.3767 50.9381 10.6268 50.47 10.8C49.9611 11.0047 49.4258 11.136 48.88 11.19L54.09 16.19L52.89 16.25ZM51.89 6.80001C51.7241 6.46543 51.4632 6.18717 51.14 6.00001C50.658 5.71474 50.1302 5.51512 49.58 5.41001C48.704 5.2389 47.8123 5.1618 46.92 5.18001H43.83V10.5H48C48.5988 10.5108 49.1957 10.4298 49.77 10.26C50.2277 10.1248 50.6601 9.91534 51.05 9.64001C51.3636 9.40466 51.6228 9.10452 51.81 8.76001C51.9763 8.45262 52.0655 8.10947 52.07 7.76001C52.0685 7.43082 52.004 7.10496 51.88 6.80001H51.89Z" fill="white"/>
<path d="M58.05 5.15002V16.25H57.18V5.15002H52.48V4.33002H62.74V5.15002H58.05Z" fill="white"/>
<path d="M68 16.25V4.33002H68.87V16.25H68Z" fill="white"/>
<path d="M80.91 16.25L75.68 9.80002L72.36 5.67002C72.36 6.67002 72.36 8.06002 72.36 9.80002V16.25H71.5V4.33002H72.32L77.56 10.8C78.98 12.54 80.08 13.91 80.88 14.91C80.88 13.91 80.88 12.53 80.88 10.8V4.33002H81.75V16.25H80.91Z" fill="white"/>
<path d="M90.3 16.25H89.66L84.12 4.33H85L87.69 10L88.84 12.5C89.22 13.3333 89.6067 14.1667 90 15C90.38 14.1333 90.76 13.2933 91.14 12.48L92.26 10L94.91 4.31H95.83L90.3 16.25Z" fill="white"/>
<path d="M98.14 16.25V4.33002H106.14V5.15002H99V9.62002H104.79V10.44H99V15.44H106.35V16.26L98.14 16.25Z" fill="white"/>
<path d="M117.15 16.25L111.92 9.80002L108.59 5.67002C108.59 6.67002 108.59 8.06002 108.59 9.80002V16.25H107.72V4.33002H108.54L113.78 10.8C115.2 12.54 116.3 13.91 117.1 14.91C117.1 13.91 117.1 12.53 117.1 10.8V4.33002H118V16.25H117.15Z" fill="white"/>
<path d="M125.41 5.15002V16.25H124.54V5.15002H119.85V4.33002H130.11V5.15002H125.41Z" fill="white"/>
<path d="M141.39 13C141.054 13.7419 140.559 14.4008 139.94 14.93C139.328 15.4509 138.617 15.8422 137.85 16.08C136.266 16.5861 134.564 16.5861 132.98 16.08C132.212 15.8445 131.5 15.453 130.89 14.93C130.268 14.4014 129.769 13.7426 129.43 13C129.049 12.1482 128.861 11.2228 128.88 10.29C128.863 9.35404 129.05 8.42562 129.43 7.56999C129.775 6.83069 130.272 6.17289 130.89 5.63999C131.509 5.1183 132.226 4.72712 133 4.48999C134.584 3.98389 136.286 3.98389 137.87 4.48999C138.635 4.72831 139.345 5.11576 139.96 5.62999C140.575 6.167 141.069 6.82818 141.41 7.56999C141.794 8.42768 141.982 9.36039 141.96 10.3C141.976 11.2315 141.781 12.1545 141.39 13ZM140.6 7.87999C140.317 7.23444 139.894 6.6604 139.36 6.19999C138.83 5.74885 138.214 5.40879 137.55 5.19999C136.858 4.97967 136.136 4.86833 135.41 4.86999C134.687 4.8674 133.968 4.97877 133.28 5.19999C132.619 5.40876 132.007 5.74889 131.48 6.19999C130.94 6.65719 130.513 7.23188 130.23 7.87999C129.905 8.63405 129.744 9.44893 129.76 10.27C129.742 11.088 129.903 11.9001 130.23 12.65C130.513 13.2952 130.941 13.8666 131.48 14.32C132.007 14.7706 132.619 15.1107 133.28 15.32C134.673 15.7602 136.167 15.7602 137.56 15.32C138.224 15.1107 138.839 14.7707 139.37 14.32C139.903 13.8634 140.327 13.2926 140.61 12.65C140.942 11.9015 141.102 11.0884 141.08 10.27C141.096 9.45111 140.932 8.63868 140.6 7.88999V7.87999Z" fill="white"/>
<path d="M154.42 16.25L149.32 11.25H145.32V16.25H144.46V4.33001H148.54C150.087 4.21902 151.636 4.53008 153.02 5.23001C153.457 5.482 153.818 5.84732 154.064 6.28737C154.31 6.72741 154.433 7.22584 154.42 7.73001C154.434 8.16893 154.341 8.60468 154.15 9.00001C153.933 9.40468 153.641 9.76441 153.29 10.06C152.904 10.3767 152.468 10.6268 152 10.8C151.491 11.0047 150.956 11.136 150.41 11.19L155.62 16.19L154.42 16.25ZM153.42 6.80001C153.262 6.45574 153.004 6.16669 152.68 5.97001C152.198 5.68474 151.67 5.48512 151.12 5.38001C150.244 5.2089 149.352 5.1318 148.46 5.15001H145.37V10.47H149.54C150.139 10.4808 150.736 10.3998 151.31 10.23C151.765 10.0969 152.195 9.88726 152.58 9.61001C152.899 9.37767 153.162 9.07702 153.35 8.73001C153.516 8.42262 153.606 8.07947 153.61 7.73001C153.602 7.41029 153.534 7.09493 153.41 6.80001H153.42Z" fill="white"/>
<path d="M161.33 11.17V16.25H160.46V11.17L155.32 4.33002H156.32L158.72 7.53002C159.07 8.01002 159.43 8.53002 159.79 8.96002C160.15 9.39002 160.5 9.90002 160.86 10.38L162 9.00002C162.36 8.53002 162.71 8.05002 163.06 7.57002L165.46 4.38002H166.46L161.33 11.17Z" fill="white"/>
<path d="M13.79 11.64L17 17.14H18.33L11.38 5.14001L3.82 18.18H2.5L11.34 2.89001L20.24 18.18H16.07L13.07 12.95H8.15L11.38 7.33001L12 8.49001L10.19 11.64H13.79Z" fill="white"/>
<path d="M22.75 21.07H0V0H22.75V21.07ZM1 20.07H21.75V1H1V20.07Z" fill="white"/>
</g>
<defs>
<clipPath id="clip0">
<rect width="166.47" height="21.07" fill="white"/>
</clipPath>
</defs>
</svg>
