<svg width="95" height="66" viewBox="0 0 95 66" fill="none" xmlns="http://www.w3.org/2000/svg">
<path d="M7.32039 30.4308C5.36145 14.3501 17.821 0.394531 33.6867 0.394531C42.7754 0.394531 51.1406 5.03457 56.135 12.7207C56.488 13.2521 56.3115 13.9782 55.7821 14.3324C55.2526 14.3324 54.5291 14.3324 54.1761 13.8011C49.7288 6.82329 42.0695 2.53745 33.6867 2.53745C20.1506 2.53745 9.2793 13.624 9.2793 27.0305C9.2793 28.1108 9.2793 29.1734 9.4558 30.0766C9.4558 30.6079 9.1029 31.334 8.57341 31.334C7.86748 31.5111 7.32039 30.9798 7.32039 30.4485V30.4308Z" fill="#596066" stroke="#596066" stroke-width="0.5"/>
<path d="M78.9665 64.9652H69.1663C68.6366 64.9652 68.0892 64.4444 68.0892 63.9063C68.0892 63.3681 68.6189 62.8473 69.1663 62.8473C80.2202 62.8473 67.736 62.8473 78.9665 62.8473C86.4535 62.8473 92.5102 56.8928 92.5102 49.5322C92.5102 41.3035 85.0232 34.9844 76.8299 36.3905C76.1236 36.5641 75.3996 35.8697 75.5762 35.158C76.8299 26.9293 70.4024 19.7423 62.2091 19.7423C58.9953 19.7423 55.9758 20.8013 53.4684 22.7282C52.9386 23.249 51.8615 22.9018 51.6849 22.2074C49.1951 14.4995 41.8848 9.23945 33.6915 9.23945C20.3244 9.23945 11.2305 22.5546 16.2277 34.6545C16.5809 35.3489 16.0511 36.0607 15.1506 36.2343C7.84015 36.5815 2.13662 42.3624 2.13662 49.5495C2.13662 56.7365 7.84015 62.6911 15.1506 62.8647H19.9712C20.501 62.8647 21.0483 63.3855 21.0483 63.9236C21.0483 64.4618 20.5186 64.9826 19.9712 64.9826H15.1506C6.60409 64.6354 0 57.7956 0 49.3933C0 41.5118 5.88011 35.0191 13.5437 33.9775C9.27049 20.6624 19.4238 7 33.6915 7C42.4322 7 50.0958 12.0865 53.2918 19.968C55.9581 18.2146 58.9953 17.3466 62.2091 17.3466C71.3029 17.3466 78.6134 24.8808 78.066 33.9949C87.1598 33.4741 95 40.4702 95 49.5842C94.8234 57.9865 87.6896 65 78.9665 65V64.9652Z" fill="#596066"/>
<path d="M48 52C41.2753 52 36 46.7247 36 40C36 33.2752 41.2753 28 48 28C54.7247 28 60 33.2752 60 40C60 46.7247 54.7247 52 48 52ZM48 31.1129C42.9624 31.1129 38.8752 35.2 38.8752 40.2139C38.8752 45.2277 42.9624 49.3387 48 49.3387C53.0376 49.3387 57.1247 45.2514 57.1247 40.2139C57.1247 35.1762 53.0376 31.1129 48 31.1129Z" fill="#596066" stroke="#596066" stroke-width="0.5"/>
<path d="M88.5435 25.9668C89.4259 25.9668 90.1495 26.6929 90.1495 27.5784C90.1495 28.4639 89.4259 29.19 88.5435 29.19C87.6611 29.19 86.9375 28.4639 86.9375 27.5784C86.9375 26.6929 87.6611 25.9668 88.5435 25.9668Z" fill="#596066" stroke="#596066" stroke-width="0.5"/>
<path d="M62.606 62C63.4884 62 64.212 62.7261 64.212 63.6116C64.212 64.4972 63.4884 65.2233 62.606 65.2233C61.7236 65.2233 61 64.4972 61 63.6116C61 62.7261 61.7236 62 62.606 62Z" fill="#596066" stroke="#596066" stroke-width="0.5"/>
<path d="M47.606 62C48.4884 62 49.212 62.7261 49.212 63.6116C49.212 64.4972 48.4884 65.2233 47.606 65.2233C46.7236 65.2233 46 64.4972 46 63.6116C46 62.7261 46.7236 62 47.606 62Z" fill="#596066" stroke="#596066" stroke-width="0.5"/>
<path d="M30.606 62C31.4884 62 32.2119 62.7261 32.2119 63.6116C32.2119 64.4971 31.4884 65.2232 30.606 65.2232C29.7235 65.2232 29 64.4971 29 63.6116C29 62.7261 29.7235 62 30.606 62Z" fill="#596066" stroke="#596066" stroke-width="0.5"/>
<path d="M29.606 20C30.4884 20 31.212 20.7261 31.212 21.6116C31.212 22.4971 30.4884 23.2232 29.606 23.2232C28.7236 23.2232 28 22.4971 28 21.6116C28 20.7261 28.7236 20 29.606 20Z" fill="#596066" stroke="#596066" stroke-width="0.5"/>
<line x1="43.6122" y1="44.0448" x2="51.3642" y2="36.2929" stroke="black" stroke-opacity="0.7" stroke-width="2"/>
<line x1="43.7071" y1="36.2929" x2="51.4591" y2="44.0448" stroke="black" stroke-opacity="0.7" stroke-width="2"/>
</svg>
