<svg width="130" height="130" viewBox="0 0 130 130" fill="none" xmlns="http://www.w3.org/2000/svg">
<path d="M104.964 106.631L121.378 123.044" stroke="black" stroke-width="9" stroke-linecap="round" stroke-linejoin="round"/>
<path d="M88.5511 112.102C100.637 112.102 110.435 102.304 110.435 90.2178C110.435 78.1314 100.637 68.3335 88.5511 68.3335C76.4647 68.3335 66.6667 78.1314 66.6667 90.2178C66.6667 102.304 76.4647 112.102 88.5511 112.102Z" stroke="black" stroke-width="9" stroke-linecap="round" stroke-linejoin="round"/>
<path d="M98.3333 5V18.3333" stroke="black" stroke-width="9" stroke-linecap="round" stroke-linejoin="round"/>
<path d="M31.6667 5V18.3333" stroke="black" stroke-width="9" stroke-linecap="round" stroke-linejoin="round"/>
<path d="M45.2043 125C41.17 125 28.4519 125 20.3833 125C15.0342 125 13.0945 124.479 11.1389 123.5C9.18337 122.522 7.64864 121.086 6.6028 119.256C5.55695 117.426 5 115.611 5 110.606V32.7272C5 27.7222 5.55695 25.9073 6.6028 24.0775C7.64864 22.2478 9.18337 20.8118 11.1389 19.8332C13.0945 18.8546 15.0342 18.3335 20.3833 18.3335H109.617C114.966 18.3335 116.906 18.8546 118.861 19.8332C120.817 20.8118 122.351 22.2478 123.397 24.0775C124.443 25.9073 125 39.9783 125 44.9833" stroke="black" stroke-width="9" stroke-linecap="round" stroke-linejoin="round"/>
</svg>
