<svg width="18" height="20" viewBox="0 0 18 20" fill="none" xmlns="http://www.w3.org/2000/svg">
<path d="M11.0553 7.75L10.7957 14.5M7.20433 14.5L6.94471 7.75M14.4207 5.34293C14.6772 5.38166 14.9328 5.4231 15.1875 5.46722M14.4207 5.34293L13.6199 15.7544C13.5522 16.6336 12.8191 17.3125 11.9373 17.3125H6.06268C5.1809 17.3125 4.44778 16.6336 4.38015 15.7544L3.57926 5.34293M14.4207 5.34293C13.5609 5.21308 12.6911 5.11364 11.8125 5.04574M2.8125 5.46722C3.06718 5.4231 3.32278 5.38166 3.57926 5.34293M3.57926 5.34293C4.43908 5.21308 5.30887 5.11364 6.1875 5.04574M11.8125 5.04574V4.35864C11.8125 3.47412 11.1295 2.73567 10.2454 2.70739C9.83192 2.69416 9.41674 2.6875 9 2.6875C8.58326 2.6875 8.16808 2.69416 7.75456 2.70739C6.87049 2.73567 6.1875 3.47412 6.1875 4.35864V5.04574M11.8125 5.04574C10.8844 4.97403 9.94648 4.9375 9 4.9375C8.05352 4.9375 7.11558 4.97403 6.1875 5.04574" stroke="#040C2D" stroke-width="1.5" stroke-linecap="round" stroke-linejoin="round"/>
</svg>
