<svg width="120" height="120" viewBox="0 0 120 120" fill="none" xmlns="http://www.w3.org/2000/svg">
<g clip-path="url(#clip0_640_121)">
<path d="M59.5229 9.95242L59.5549 9.90311L59.5857 9.85298C59.6499 9.7483 59.7389 9.66098 59.8447 9.5987C59.9272 9.5502 60.0179 9.51805 60.112 9.50371C60.1405 9.509 60.1679 9.51922 60.1931 9.53403C60.2326 9.55723 60.2649 9.59082 60.2865 9.63111L60.3697 9.78572L60.4646 9.93339L82.9646 44.9334L82.9861 44.9669L83.0082 45L82.9597 45.0726L82.9141 45.147C82.8499 45.2516 82.7609 45.339 82.6551 45.4013C82.5644 45.4546 82.4638 45.4881 82.3598 45.5H37.2499H37.2184L37.187 45.5004C37.1412 45.5011 37.0961 45.4891 37.0567 45.4659L37.0342 45.5042L37.0567 45.4659C37.0361 45.4538 37.0174 45.4388 37.0012 45.4216C36.9529 45.2866 36.928 45.144 36.928 45C36.928 44.8726 36.9474 44.7464 36.9854 44.6255L59.5229 9.95242Z" stroke="black" stroke-width="9"/>
<path d="M107.5 103H72.5C72.3674 103 72.2402 102.947 72.1464 102.854C72.0527 102.76 72 102.633 72 102.5V67.5C72 67.3674 72.0527 67.2402 72.1464 67.1464C72.2402 67.0527 72.3674 67 72.5 67H107.5C107.633 67 107.76 67.0527 107.854 67.1464C107.947 67.2402 108 67.3674 108 67.5V102.5C108 102.633 107.947 102.76 107.854 102.854C107.76 102.947 107.633 103 107.5 103Z" stroke="black" stroke-width="9"/>
<path d="M21.1108 67.9549C24.482 65.7023 28.4455 64.5 32.5 64.5C35.1921 64.5 37.8578 65.0302 40.345 66.0605C42.8322 67.0907 45.0921 68.6007 46.9957 70.5043C48.8993 72.4079 50.4093 74.6678 51.4395 77.155C52.4698 79.6422 53 82.3079 53 85C53 89.0545 51.7977 93.018 49.5451 96.3892C47.2926 99.7604 44.0909 102.388 40.345 103.94C36.5991 105.491 32.4773 105.897 28.5007 105.106C24.5241 104.315 20.8713 102.363 18.0043 99.4957C15.1373 96.6287 13.1849 92.976 12.3939 88.9994C11.6029 85.0227 12.0089 80.9009 13.5605 77.155C15.1121 73.4091 17.7396 70.2074 21.1108 67.9549Z" stroke="black" stroke-width="9"/>
</g>
<defs>
<clipPath id="clip0_640_121">
<rect width="120" height="120" fill="white"/>
</clipPath>
</defs>
</svg>
