<svg width="709" height="446" viewBox="0 0 709 446" fill="none" xmlns="http://www.w3.org/2000/svg">
<path d="M0.0656879 216.063C0.0656286 309.534 75.6928 385.161 169.108 385.105L276.168 385.105L276.168 328.758L169.108 328.758C109.667 328.758 56.3579 281.747 56.4132 216.063C56.4132 150.324 109.667 103.368 169.108 103.368L276.169 103.367L276.169 46.9095L169.108 46.9096C75.7482 47.0202 0.12099 122.647 0.0656879 216.063ZM539.4 103.313C598.841 103.313 652.15 150.324 652.095 216.008C652.095 281.746 598.841 328.702 539.4 328.702L432.34 328.702L432.339 385.16L539.4 385.16C632.871 385.16 708.497 309.533 708.442 216.118C708.387 122.703 632.815 47.0202 539.4 47.0755L432.339 47.0754L432.34 103.423L539.4 103.313ZM324.763 439.273C324.771 440.926 325.431 442.509 326.6 443.678C327.769 444.847 329.352 445.507 331.005 445.515L374.757 445.515C376.411 445.507 377.994 444.847 379.162 443.678C380.331 442.509 380.992 440.926 381 439.273L381 6.74239C381 3.31734 378.183 0.500049 374.758 0.500051L331.005 0.500008C327.58 0.50001 324.763 3.31739 324.763 6.74243L324.763 439.273Z" fill="black"/>
</svg>
