<svg width="4" height="15" viewBox="0 0 4 15" fill="none" xmlns="http://www.w3.org/2000/svg">
<path d="M1.99922 0.150391C2.99333 0.150391 3.79922 0.855542 3.79922 1.72539C3.79922 2.59524 2.99333 3.30039 1.99922 3.30039C1.00511 3.30039 0.199219 2.59524 0.199219 1.72539C0.199219 0.855542 1.00511 0.150391 1.99922 0.150391Z" fill="#040C2D"/>
<path d="M1.99922 5.92539C2.99333 5.92539 3.79922 6.63054 3.79922 7.50039C3.79922 8.37024 2.99333 9.07539 1.99922 9.07539C1.00511 9.07539 0.199219 8.37024 0.199219 7.50039C0.199219 6.63054 1.00511 5.92539 1.99922 5.92539Z" fill="#040C2D"/>
<path d="M3.79922 13.2754C3.79922 12.4055 2.99333 11.7004 1.99922 11.7004C1.00511 11.7004 0.199219 12.4055 0.199219 13.2754C0.199219 14.1452 1.00511 14.8504 1.99922 14.8504C2.99333 14.8504 3.79922 14.1452 3.79922 13.2754Z" fill="#040C2D"/>
</svg>
