<svg width="584" height="650" viewBox="0 0 584 650" fill="none" xmlns="http://www.w3.org/2000/svg">
<path d="M25.3334 91.6667H225.333M225.333 91.6667C225.333 128.486 255.18 158.333 292 158.333C328.82 158.333 358.667 128.486 358.667 91.6667M225.333 91.6667C225.333 54.8477 255.18 25 292 25C328.82 25 358.667 54.8477 358.667 91.6667M358.667 91.6667H558.667M25.3334 325H425.333M425.333 325C425.333 361.82 455.18 391.667 492 391.667C528.82 391.667 558.667 361.82 558.667 325C558.667 288.18 528.82 258.333 492 258.333C455.18 258.333 425.333 288.18 425.333 325ZM158.667 558.333H558.667M158.667 558.333C158.667 521.513 128.819 491.667 92 491.667C55.181 491.667 25.3334 521.513 25.3334 558.333C25.3334 595.153 55.181 625 92 625C128.819 625 158.667 595.153 158.667 558.333Z" stroke="black" stroke-width="50" stroke-linecap="round"/>
</svg>
