<svg width="200" height="200" viewBox="0 0 200 200" fill="none" xmlns="http://www.w3.org/2000/svg">
<path fill-rule="evenodd" clip-rule="evenodd" d="M99.9575 35C73.0531 35 49.4981 51.1103 33.3124 66.0171C25.0896 73.5902 18.4576 81.1408 13.8817 86.7928C11.5893 89.6236 9.8014 91.9928 8.57636 93.6696C7.96355 94.5085 7.49077 95.1747 7.16541 95.6402C7.00268 95.873 6.8767 96.0553 6.78845 96.1843L6.68439 96.3365L6.65374 96.3821L4 100.589L6.64385 104.525L6.65374 104.54L6.68439 104.586L6.78845 104.738C6.8767 104.867 7.00268 105.049 7.16541 105.282C7.49077 105.747 7.96355 106.414 8.57636 107.253C9.8014 108.929 11.5893 111.299 13.8817 114.129C18.4576 119.781 25.0896 127.332 33.3124 134.905C49.4981 149.812 73.0531 165.922 99.9575 165.922C126.861 165.922 150.416 149.812 166.602 134.905C174.825 127.332 181.457 119.781 186.032 114.129C188.325 111.299 190.112 108.929 191.338 107.253C191.95 106.414 192.423 105.747 192.748 105.282C192.911 105.049 193.037 104.867 193.126 104.738L193.229 104.586L193.26 104.54L193.274 104.521L196 100.461L193.27 96.3967L193.26 96.3821L193.229 96.3365L193.126 96.1843C193.037 96.0553 192.911 95.873 192.748 95.6402C192.423 95.1747 191.95 94.5085 191.338 93.6696C190.112 91.9928 188.325 89.6236 186.032 86.7928C181.457 81.1408 174.825 73.5902 166.602 66.0171C150.416 51.1103 126.861 35 99.9575 35ZM25.1876 104.976C23.7971 103.259 22.6133 101.732 21.653 100.461C22.6133 99.1897 23.7971 97.6632 25.1876 95.9457C29.4452 90.6875 35.5951 83.6914 43.1672 76.7174C58.5712 62.5304 78.6568 49.5469 99.9575 49.5469C121.257 49.5469 141.343 62.5304 156.747 76.7174C164.319 83.6914 170.469 90.6875 174.727 95.9457C176.117 97.6632 177.3 99.1897 178.262 100.461C177.3 101.732 176.117 103.259 174.727 104.976C170.469 110.235 164.319 117.231 156.747 124.205C141.343 138.392 121.257 151.375 99.9575 151.375C78.6568 151.375 58.5712 138.392 43.1672 124.205C35.5951 117.231 29.4452 110.235 25.1876 104.976ZM121.777 100.461C121.777 112.512 112.008 122.281 99.9565 122.281C87.9059 122.281 78.1366 112.512 78.1366 100.461C78.1366 88.4104 87.9059 78.6407 99.9565 78.6407C112.008 78.6407 121.777 88.4104 121.777 100.461ZM136.324 100.461C136.324 120.546 120.042 136.828 99.9565 136.828C79.8719 136.828 63.5897 120.546 63.5897 100.461C63.5897 80.376 79.8719 64.0938 99.9565 64.0938C120.042 64.0938 136.324 80.376 136.324 100.461Z" fill="#080341"/>
</svg>
